<svg viewBox="0 0 512 512" xmlns="http://www.w3.org/2000/svg" fill-rule="evenodd" clip-rule="evenodd" stroke-linejoin="round" stroke-miterlimit="2"><path fill="white" d="M13.278 373.653h40.52V201.158h-40.52v172.495zm20.18-195.115c12.692 0 22.618-9.764 22.618-21.968 0-12.368-9.926-22.132-22.618-22.132-12.532 0-22.458 9.764-22.458 22.132 0 12.204 9.926 21.968 22.458 21.968zm155.251-43.614c-68.51 0-111.473 46.705-111.473 121.401 0 74.695 42.96 121.237 111.473 121.237 68.345 0 111.308-46.542 111.308-121.237 0-74.696-42.959-121.4-111.308-121.4zm0 35.803c41.822 0 68.508 33.197 68.508 85.596 0 52.237-26.688 85.436-68.508 85.436-41.985 0-68.51-33.197-68.51-85.436 0-52.399 26.527-85.596 68.51-85.596zm128.403 136.859c1.79 43.288 37.265 69.974 91.29 69.974 56.795 0 92.597-27.99 92.597-72.58 0-34.986-20.178-54.676-67.859-65.579l-27.013-6.184c-28.805-6.833-40.683-15.946-40.683-31.569 0-19.529 17.9-32.546 44.425-32.546 26.85 0 45.239 13.182 47.193 35.15h40.03c-.975-41.335-35.149-69.326-86.896-69.326-51.1 0-87.388 28.152-87.388 69.814 0 33.522 20.503 54.351 63.788 64.28l30.432 7.16c29.616 6.998 41.66 16.761 41.66 33.685 0 19.528-19.693 33.523-48.005 33.523-28.64 0-50.283-14.158-52.888-35.802h-40.683z" fill-rule="nonzero"/></svg>